<svg width="600" height="200" viewBox="0 0 600 200" fill="none" xmlns="http://www.w3.org/2000/svg">
<rect width="600" height="200" fill="#18222D"/>
<path d="M108.873 76.8867L121.861 107.355L134.947 76.8867H139.146L123.619 112.531H120.006L104.479 76.8867H108.873ZM162.314 91.7305V87.3359H166.318V112.531H162.314V107.941C160.85 111.164 157.725 112.922 153.818 112.922C147.08 112.922 142.686 107.746 142.686 99.9336C142.686 92.1211 147.178 86.75 153.818 86.75C157.725 86.75 160.752 88.6055 162.314 91.7305ZM162.314 99.8359C162.314 93.5859 159.58 90.168 154.6 90.168C149.619 90.168 146.787 93.7812 146.787 99.9336C146.787 106.086 149.619 109.504 154.6 109.504C159.58 109.504 162.314 105.988 162.314 99.8359ZM187.631 87.043L187.533 90.7539C186.85 90.5586 185.873 90.3633 184.896 90.3633C182.455 90.3633 180.697 91.1445 179.428 92.707C178.354 94.1719 177.67 96.0273 177.67 98.1758V112.531H173.666V94.4648C173.666 91.8281 173.471 89.4844 173.275 87.3359H177.084L177.475 92.0234C178.744 88.6055 181.771 86.75 185.385 86.75C186.166 86.75 186.947 86.8477 187.631 87.043ZM200.545 81.2812H195.662V76.6914H200.545V81.2812ZM200.057 87.3359V112.531H196.053V87.3359H200.057ZM227.131 91.7305V87.3359H231.135V112.531H227.131V107.941C225.666 111.164 222.541 112.922 218.635 112.922C211.896 112.922 207.502 107.746 207.502 99.9336C207.502 92.1211 211.994 86.75 218.635 86.75C222.541 86.75 225.568 88.6055 227.131 91.7305ZM227.131 99.8359C227.131 93.5859 224.396 90.168 219.416 90.168C214.436 90.168 211.604 93.7812 211.604 99.9336C211.604 106.086 214.436 109.504 219.416 109.504C224.396 109.504 227.131 105.988 227.131 99.8359ZM262.213 99.7383C262.213 107.551 257.721 112.922 250.982 112.922C247.076 112.922 244.049 111.066 242.486 107.844V112.531H238.482V75.7148H242.486V91.8281C243.951 88.6055 247.076 86.75 250.982 86.75C257.721 86.75 262.213 91.9258 262.213 99.7383ZM258.014 99.7383C258.014 93.6836 255.182 90.168 250.299 90.168C245.318 90.168 242.486 93.5859 242.486 99.8359C242.486 105.988 245.318 109.504 250.299 109.504C255.084 109.504 258.014 105.891 258.014 99.7383ZM275.029 75.7148V112.531H271.025V75.7148H275.029ZM304.838 99.0547V99.8359H286.479C286.479 106.184 289.408 109.504 294.975 109.504C297.904 109.504 300.639 108.527 303.08 106.574L304.447 109.504C302.201 111.555 298.49 112.922 294.975 112.922C287.064 112.922 282.377 107.941 282.377 99.8359C282.377 92.1211 287.26 86.75 294.193 86.75C300.834 86.75 304.838 91.4375 304.838 99.0547ZM286.576 97.1992H301.225C300.834 92.4141 298.393 89.9727 294.193 89.9727C289.994 89.9727 287.357 92.6094 286.576 97.1992ZM310.623 109.602L311.99 106.672C314.725 108.82 317.361 109.602 320.877 109.602C324.588 109.602 326.639 108.234 326.639 105.793C326.639 103.84 325.369 102.766 322.342 101.984L318.045 101.008C313.846 100.031 311.502 97.5898 311.502 94.2695C311.502 89.875 315.311 86.75 321.17 86.75C324.686 86.75 327.908 87.9219 330.057 90.0703L328.689 93C326.346 91.0469 323.807 90.0703 321.17 90.0703C317.557 90.0703 315.506 91.5352 315.506 93.9766C315.506 96.0273 316.678 97.1992 319.412 97.7852L323.611 98.8594C328.299 100.031 330.545 102.18 330.545 105.695C330.545 110.09 326.736 112.922 320.682 112.922C316.385 112.922 313.064 111.75 310.623 109.602ZM362.818 81.2812H357.936V76.6914H362.818V81.2812ZM362.33 87.3359V112.531H358.326V87.3359H362.33ZM392.822 96.7109V112.531H388.818V96.9062C388.818 92.3164 386.963 90.168 382.959 90.168C378.369 90.168 375.244 93.293 375.244 98.1758V112.531H371.24V94.4648C371.24 91.8281 371.045 89.4844 370.85 87.3359H374.658L375.049 91.9258C376.611 88.6055 379.834 86.75 383.74 86.75C389.795 86.75 392.822 90.0703 392.822 96.7109ZM417.869 77.375H461.619V121.125H417.869V77.375ZM441.6 111.555V97.4922H437.498V111.457C437.498 113.508 436.619 114.094 435.35 114.094C433.885 114.094 433.299 113.117 432.713 111.945L429.295 113.996C430.271 116.047 432.225 117.707 435.447 117.707C439.158 117.707 441.6 115.754 441.6 111.555ZM451.365 117.707C455.271 117.707 458.201 115.754 458.201 112.043C458.201 108.625 456.248 107.062 452.732 105.598L451.658 105.109C449.9 104.328 449.119 103.84 449.119 102.57C449.119 101.594 449.9 100.812 451.072 100.812C452.342 100.812 453.025 101.398 453.807 102.57L456.932 100.52C455.662 98.1758 453.709 97.2969 451.17 97.2969C447.459 97.2969 445.115 99.6406 445.115 102.668C445.115 106.086 447.068 107.648 449.998 108.918L451.072 109.309C452.928 110.188 454.1 110.676 454.1 112.043C454.1 113.215 452.928 114.094 451.268 114.094C449.217 114.094 448.143 113.02 447.264 111.652L443.846 113.508C445.115 115.949 447.557 117.707 451.365 117.707Z" fill="white"/>
</svg>
