<svg width="600" height="600" viewBox="0 0 600 600" fill="none" xmlns="http://www.w3.org/2000/svg">
<rect width="600" height="600" fill="#18222D"/>
<g clip-path="url(#clip0_207_166)">
<path d="M137 102H463V364H137V102Z" fill="#F7DF1E"/>
<path d="M222.717 320.946L247.665 308.813C252.478 315.671 256.856 321.473 267.358 321.473C277.425 321.473 283.771 318.309 283.771 305.999V222.283H314.407V306.347C314.407 331.848 295.808 343.456 268.671 343.456C244.164 343.456 229.938 333.255 222.717 320.944" fill="black"/>
<path d="M331.048 318.308L355.992 306.701C362.559 315.319 371.093 321.65 386.192 321.65C398.886 321.65 406.98 316.549 406.98 309.514C406.98 301.073 398.665 298.083 384.66 293.16L377.003 290.52C354.899 282.959 340.237 273.462 340.237 253.412C340.237 234.946 357.743 220.876 385.098 220.876C404.575 220.876 418.58 226.328 428.645 240.574L404.792 252.884C399.54 245.322 393.852 242.333 385.099 242.333C376.127 242.333 370.437 246.906 370.437 252.884C370.437 260.271 376.127 263.262 389.255 267.834L396.914 270.472C422.955 279.442 437.617 288.587 437.617 309.163C437.617 331.324 415.953 343.458 386.849 343.458C358.401 343.458 340.018 332.554 331.048 318.308Z" fill="black"/>
</g>
<path d="M183.445 439.513L164.772 489H157.317L138.644 439.513H145.531L161.08 482.184L176.629 439.513H183.445ZM189.535 469.404C189.535 465.428 190.34 461.949 191.949 458.967C193.559 455.938 195.76 453.595 198.552 451.938C201.392 450.281 204.54 449.453 207.995 449.453C211.403 449.453 214.362 450.187 216.87 451.654C219.379 453.121 221.249 454.967 222.479 457.192V450.092H229.011V489H222.479V481.758C221.201 484.03 219.284 485.923 216.728 487.438C214.22 488.905 211.285 489.639 207.924 489.639C204.469 489.639 201.345 488.787 198.552 487.083C195.76 485.379 193.559 482.989 191.949 479.912C190.34 476.835 189.535 473.333 189.535 469.404ZM222.479 469.475C222.479 466.54 221.888 463.984 220.704 461.807C219.521 459.63 217.912 457.973 215.876 456.837C213.888 455.654 211.687 455.062 209.273 455.062C206.859 455.062 204.658 455.63 202.67 456.766C200.682 457.902 199.097 459.559 197.913 461.736C196.73 463.913 196.138 466.469 196.138 469.404C196.138 472.386 196.73 474.989 197.913 477.214C199.097 479.391 200.682 481.072 202.67 482.255C204.658 483.391 206.859 483.959 209.273 483.959C211.687 483.959 213.888 483.391 215.876 482.255C217.912 481.072 219.521 479.391 220.704 477.214C221.888 474.989 222.479 472.41 222.479 469.475ZM247.811 456.411C248.947 454.186 250.556 452.459 252.639 451.228C254.769 449.997 257.348 449.382 260.378 449.382V456.056H258.674C251.432 456.056 247.811 459.985 247.811 467.842V489H241.35V450.092H247.811V456.411ZM272.593 443.773C271.362 443.773 270.321 443.347 269.469 442.495C268.617 441.643 268.191 440.602 268.191 439.371C268.191 438.14 268.617 437.099 269.469 436.247C270.321 435.395 271.362 434.969 272.593 434.969C273.776 434.969 274.77 435.395 275.575 436.247C276.427 437.099 276.853 438.14 276.853 439.371C276.853 440.602 276.427 441.643 275.575 442.495C274.77 443.347 273.776 443.773 272.593 443.773ZM275.717 450.092V489H269.256V450.092H275.717ZM285.735 469.404C285.735 465.428 286.539 461.949 288.149 458.967C289.758 455.938 291.959 453.595 294.752 451.938C297.592 450.281 300.739 449.453 304.195 449.453C307.603 449.453 310.561 450.187 313.07 451.654C315.578 453.121 317.448 454.967 318.679 457.192V450.092H325.211V489H318.679V481.758C317.401 484.03 315.484 485.923 312.928 487.438C310.419 488.905 307.484 489.639 304.124 489.639C300.668 489.639 297.544 488.787 294.752 487.083C291.959 485.379 289.758 482.989 288.149 479.912C286.539 476.835 285.735 473.333 285.735 469.404ZM318.679 469.475C318.679 466.54 318.087 463.984 316.904 461.807C315.72 459.63 314.111 457.973 312.076 456.837C310.088 455.654 307.887 455.062 305.473 455.062C303.059 455.062 300.858 455.63 298.87 456.766C296.882 457.902 295.296 459.559 294.113 461.736C292.929 463.913 292.338 466.469 292.338 469.404C292.338 472.386 292.929 474.989 294.113 477.214C295.296 479.391 296.882 481.072 298.87 482.255C300.858 483.391 303.059 483.959 305.473 483.959C307.887 483.959 310.088 483.391 312.076 482.255C314.111 481.072 315.72 479.391 316.904 477.214C318.087 474.989 318.679 472.41 318.679 469.475ZM344.01 457.334C345.335 455.015 347.276 453.121 349.832 451.654C352.388 450.187 355.299 449.453 358.565 449.453C362.068 449.453 365.215 450.281 368.008 451.938C370.801 453.595 373.002 455.938 374.611 458.967C376.22 461.949 377.025 465.428 377.025 469.404C377.025 473.333 376.22 476.835 374.611 479.912C373.002 482.989 370.777 485.379 367.937 487.083C365.144 488.787 362.02 489.639 358.565 489.639C355.204 489.639 352.246 488.905 349.69 487.438C347.181 485.971 345.288 484.101 344.01 481.829V489H337.549V436.46H344.01V457.334ZM370.422 469.404C370.422 466.469 369.83 463.913 368.647 461.736C367.464 459.559 365.854 457.902 363.819 456.766C361.831 455.63 359.63 455.062 357.216 455.062C354.849 455.062 352.648 455.654 350.613 456.837C348.625 457.973 347.016 459.653 345.785 461.878C344.602 464.055 344.01 466.588 344.01 469.475C344.01 472.41 344.602 474.989 345.785 477.214C347.016 479.391 348.625 481.072 350.613 482.255C352.648 483.391 354.849 483.959 357.216 483.959C359.63 483.959 361.831 483.391 363.819 482.255C365.854 481.072 367.464 479.391 368.647 477.214C369.83 474.989 370.422 472.386 370.422 469.404ZM393.411 436.46V489H386.95V436.46H393.411ZM441.342 468.055C441.342 469.286 441.271 470.587 441.129 471.96H410.031C410.268 475.794 411.57 478.8 413.936 480.977C416.35 483.107 419.261 484.172 422.669 484.172C425.462 484.172 427.781 483.533 429.627 482.255C431.521 480.93 432.846 479.178 433.603 477.001H440.561C439.52 480.74 437.437 483.793 434.313 486.16C431.189 488.479 427.308 489.639 422.669 489.639C418.977 489.639 415.664 488.811 412.729 487.154C409.842 485.497 407.57 483.154 405.913 480.125C404.257 477.048 403.428 473.498 403.428 469.475C403.428 465.452 404.233 461.925 405.842 458.896C407.452 455.867 409.7 453.547 412.587 451.938C415.522 450.281 418.883 449.453 422.669 449.453C426.361 449.453 429.627 450.258 432.467 451.867C435.307 453.476 437.485 455.701 438.999 458.541C440.561 461.334 441.342 464.505 441.342 468.055ZM434.668 466.706C434.668 464.245 434.124 462.138 433.035 460.387C431.947 458.588 430.456 457.239 428.562 456.34C426.716 455.393 424.657 454.92 422.385 454.92C419.119 454.92 416.327 455.961 414.007 458.044C411.735 460.127 410.434 463.014 410.102 466.706H434.668ZM465.065 489.639C462.083 489.639 459.408 489.142 457.042 488.148C454.675 487.107 452.805 485.687 451.433 483.888C450.06 482.042 449.303 479.936 449.161 477.569H455.835C456.024 479.51 456.923 481.095 458.533 482.326C460.189 483.557 462.343 484.172 464.994 484.172C467.455 484.172 469.396 483.628 470.816 482.539C472.236 481.45 472.946 480.078 472.946 478.421C472.946 476.717 472.188 475.463 470.674 474.658C469.159 473.806 466.816 472.978 463.645 472.173C460.757 471.416 458.391 470.658 456.545 469.901C454.746 469.096 453.184 467.937 451.859 466.422C450.581 464.86 449.942 462.825 449.942 460.316C449.942 458.328 450.533 456.506 451.717 454.849C452.9 453.192 454.58 451.891 456.758 450.944C458.935 449.95 461.42 449.453 464.213 449.453C468.52 449.453 471.999 450.542 474.65 452.719C477.3 454.896 478.72 457.878 478.91 461.665H472.449C472.307 459.63 471.478 457.997 469.964 456.766C468.496 455.535 466.508 454.92 464 454.92C461.68 454.92 459.834 455.417 458.462 456.411C457.089 457.405 456.403 458.707 456.403 460.316C456.403 461.594 456.805 462.659 457.61 463.511C458.462 464.316 459.503 464.978 460.734 465.499C462.012 465.972 463.763 466.517 465.988 467.132C468.78 467.889 471.052 468.647 472.804 469.404C474.555 470.114 476.046 471.203 477.277 472.67C478.555 474.137 479.217 476.054 479.265 478.421C479.265 480.551 478.673 482.468 477.49 484.172C476.306 485.876 474.626 487.225 472.449 488.219C470.319 489.166 467.857 489.639 465.065 489.639Z" fill="white"/>
<defs>
<clipPath id="clip0_207_166">
<rect width="326" height="262" fill="white" transform="translate(137 102)"/>
</clipPath>
</defs>
</svg>
