<svg width="600" height="600" viewBox="0 0 600 600" fill="none" xmlns="http://www.w3.org/2000/svg">
<rect width="600" height="600" fill="#DED8CA"/>
<path d="M111.106 440.3H117.496L130.489 487.444H131.341L144.334 440.3H150.724L136.666 490H125.164L111.106 440.3ZM185.819 484.036H184.967C183.831 486.403 182.246 488.154 180.21 489.29C178.222 490.426 176.116 490.994 173.891 490.994C171.572 490.994 169.418 490.615 167.43 489.858C165.442 489.053 163.691 487.894 162.176 486.379C160.709 484.817 159.549 482.924 158.697 480.699C157.845 478.474 157.419 475.895 157.419 472.96V471.824C157.419 468.937 157.845 466.381 158.697 464.156C159.549 461.931 160.709 460.062 162.176 458.547C163.691 456.985 165.442 455.802 167.43 454.997C169.418 454.192 171.525 453.79 173.749 453.79C176.163 453.79 178.341 454.334 180.281 455.423C182.269 456.464 183.831 458.097 184.967 460.322H185.819V454.784H191.357V482.758C191.357 484.178 191.996 484.888 193.274 484.888H195.049V490H191.286C189.677 490 188.352 489.479 187.31 488.438C186.316 487.397 185.819 486.071 185.819 484.462V484.036ZM174.459 485.74C176.116 485.74 177.631 485.432 179.003 484.817C180.423 484.202 181.63 483.326 182.624 482.19C183.618 481.054 184.399 479.705 184.967 478.143C185.535 476.534 185.819 474.759 185.819 472.818V471.966C185.819 470.073 185.535 468.345 184.967 466.783C184.399 465.174 183.595 463.801 182.553 462.665C181.559 461.529 180.352 460.653 178.932 460.038C177.56 459.375 176.069 459.044 174.459 459.044C172.803 459.044 171.288 459.352 169.915 459.967C168.543 460.582 167.336 461.458 166.294 462.594C165.3 463.683 164.519 465.032 163.951 466.641C163.383 468.203 163.099 469.931 163.099 471.824V472.96C163.099 476.983 164.141 480.131 166.223 482.403C168.353 484.628 171.099 485.74 174.459 485.74ZM203.165 454.784H215.945V459.47H216.797C217.696 457.529 218.974 456.109 220.631 455.21C222.288 454.263 224.181 453.79 226.311 453.79C229.861 453.79 232.725 454.95 234.902 457.269C237.079 459.588 238.239 462.973 238.381 467.422L232.559 468.274C232.559 465.008 231.778 462.665 230.216 461.245C228.654 459.778 226.737 459.044 224.465 459.044C222.998 459.044 221.72 459.328 220.631 459.896C219.59 460.464 218.714 461.245 218.004 462.239C217.294 463.233 216.773 464.393 216.442 465.718C216.111 467.043 215.945 468.463 215.945 469.978V484.888H224.891V490H202.313V484.888H210.407V459.896H203.165V454.784ZM260.981 444.276C260.981 442.903 261.454 441.744 262.401 440.797C263.395 439.803 264.578 439.306 265.951 439.306C267.323 439.306 268.483 439.803 269.43 440.797C270.424 441.744 270.921 442.903 270.921 444.276C270.921 445.649 270.424 446.832 269.43 447.826C268.483 448.773 267.323 449.246 265.951 449.246C264.578 449.246 263.395 448.773 262.401 447.826C261.454 446.832 260.981 445.649 260.981 444.276ZM250.899 484.888H263.253V459.896H252.177V454.784H268.791V484.888H280.293V490H250.899V484.888ZM320.5 484.036H319.648C318.512 486.403 316.927 488.154 314.891 489.29C312.903 490.426 310.797 490.994 308.572 490.994C306.253 490.994 304.099 490.615 302.111 489.858C300.123 489.053 298.372 487.894 296.857 486.379C295.39 484.817 294.23 482.924 293.378 480.699C292.526 478.474 292.1 475.895 292.1 472.96V471.824C292.1 468.937 292.526 466.381 293.378 464.156C294.23 461.931 295.39 460.062 296.857 458.547C298.372 456.985 300.123 455.802 302.111 454.997C304.099 454.192 306.206 453.79 308.43 453.79C310.844 453.79 313.022 454.334 314.962 455.423C316.95 456.464 318.512 458.097 319.648 460.322H320.5V454.784H326.038V482.758C326.038 484.178 326.677 484.888 327.955 484.888H329.73V490H325.967C324.358 490 323.033 489.479 321.991 488.438C320.997 487.397 320.5 486.071 320.5 484.462V484.036ZM309.14 485.74C310.797 485.74 312.312 485.432 313.684 484.817C315.104 484.202 316.311 483.326 317.305 482.19C318.299 481.054 319.08 479.705 319.648 478.143C320.216 476.534 320.5 474.759 320.5 472.818V471.966C320.5 470.073 320.216 468.345 319.648 466.783C319.08 465.174 318.276 463.801 317.234 462.665C316.24 461.529 315.033 460.653 313.613 460.038C312.241 459.375 310.75 459.044 309.14 459.044C307.484 459.044 305.969 459.352 304.596 459.967C303.224 460.582 302.017 461.458 300.975 462.594C299.981 463.683 299.2 465.032 298.632 466.641C298.064 468.203 297.78 469.931 297.78 471.824V472.96C297.78 476.983 298.822 480.131 300.904 482.403C303.034 484.628 305.78 485.74 309.14 485.74ZM344.094 490H338.556V440.3H344.094V460.322H344.946C346.176 458.192 347.88 456.583 350.058 455.494C352.235 454.358 354.602 453.79 357.158 453.79C359.335 453.79 361.394 454.192 363.335 454.997C365.275 455.802 366.979 456.961 368.447 458.476C369.961 459.991 371.145 461.86 371.997 464.085C372.896 466.31 373.346 468.842 373.346 471.682V473.102C373.346 475.989 372.92 478.545 372.068 480.77C371.216 482.995 370.032 484.864 368.518 486.379C367.05 487.894 365.323 489.053 363.335 489.858C361.347 490.615 359.24 490.994 357.016 490.994C355.88 490.994 354.72 490.852 353.537 490.568C352.353 490.331 351.217 489.953 350.129 489.432C349.087 488.864 348.117 488.201 347.218 487.444C346.318 486.639 345.561 485.693 344.946 484.604H344.094V490ZM355.88 485.74C357.584 485.74 359.146 485.456 360.566 484.888C361.986 484.273 363.216 483.421 364.258 482.332C365.346 481.243 366.175 479.918 366.743 478.356C367.358 476.794 367.666 475.043 367.666 473.102V471.682C367.666 469.789 367.358 468.085 366.743 466.57C366.175 465.008 365.346 463.683 364.258 462.594C363.216 461.458 361.962 460.582 360.495 459.967C359.075 459.352 357.536 459.044 355.88 459.044C354.223 459.044 352.685 459.375 351.265 460.038C349.845 460.653 348.59 461.529 347.502 462.665C346.46 463.801 345.632 465.174 345.017 466.783C344.401 468.345 344.094 470.073 344.094 471.966V472.818C344.094 474.759 344.401 476.534 345.017 478.143C345.632 479.705 346.46 481.054 347.502 482.19C348.59 483.326 349.845 484.202 351.265 484.817C352.685 485.432 354.223 485.74 355.88 485.74ZM384.727 484.888H397.507V445.412H385.153V440.3H403.045V484.888H415.825V490H384.727V484.888ZM433.668 474.096C433.81 477.599 434.899 480.415 436.934 482.545C438.969 484.675 441.809 485.74 445.454 485.74C447.111 485.74 448.554 485.551 449.785 485.172C451.016 484.793 452.057 484.273 452.909 483.61C453.808 482.947 454.518 482.19 455.039 481.338C455.607 480.439 456.057 479.492 456.388 478.498L461.642 479.918C460.648 483.184 458.802 485.858 456.104 487.941C453.453 489.976 449.856 490.994 445.312 490.994C442.803 490.994 440.484 490.568 438.354 489.716C436.271 488.817 434.473 487.562 432.958 485.953C431.443 484.344 430.26 482.427 429.408 480.202C428.556 477.977 428.13 475.516 428.13 472.818V471.114C428.13 468.653 428.556 466.357 429.408 464.227C430.307 462.097 431.538 460.275 433.1 458.76C434.662 457.198 436.484 455.991 438.567 455.139C440.697 454.24 442.993 453.79 445.454 453.79C448.341 453.79 450.826 454.334 452.909 455.423C455.039 456.464 456.767 457.766 458.092 459.328C459.465 460.89 460.459 462.594 461.074 464.44C461.737 466.286 462.068 467.99 462.068 469.552V474.096H433.668ZM445.454 459.044C443.892 459.044 442.425 459.304 441.052 459.825C439.727 460.298 438.543 460.985 437.502 461.884C436.508 462.783 435.68 463.848 435.017 465.079C434.402 466.262 433.999 467.564 433.81 468.984H456.53C456.435 467.469 456.057 466.097 455.394 464.866C454.779 463.635 453.95 462.594 452.909 461.742C451.915 460.89 450.755 460.227 449.43 459.754C448.152 459.281 446.827 459.044 445.454 459.044ZM481.828 463.872C481.828 465.576 482.538 466.878 483.958 467.777C485.425 468.676 488.076 469.268 491.91 469.552C496.028 469.883 499.152 470.877 501.282 472.534C503.459 474.143 504.548 476.51 504.548 479.634V480.06C504.548 481.764 504.193 483.302 503.483 484.675C502.82 486 501.873 487.136 500.643 488.083C499.459 489.03 497.992 489.74 496.241 490.213C494.537 490.734 492.667 490.994 490.632 490.994C487.886 490.994 485.52 490.639 483.532 489.929C481.591 489.172 479.958 488.201 478.633 487.018C477.355 485.787 476.384 484.415 475.722 482.9C475.059 481.338 474.68 479.776 474.586 478.214L479.84 476.936C480.076 479.634 481.118 481.811 482.964 483.468C484.81 485.077 487.271 485.882 490.348 485.882C492.951 485.882 495.034 485.385 496.596 484.391C498.205 483.35 499.01 481.906 499.01 480.06C499.01 478.072 498.229 476.652 496.667 475.8C495.105 474.948 492.572 474.404 489.07 474.167C484.999 473.883 481.875 472.936 479.698 471.327C477.52 469.718 476.432 467.375 476.432 464.298V463.872C476.432 462.215 476.787 460.772 477.497 459.541C478.207 458.263 479.153 457.198 480.337 456.346C481.567 455.494 482.94 454.855 484.455 454.429C485.969 454.003 487.555 453.79 489.212 453.79C491.531 453.79 493.566 454.121 495.318 454.784C497.069 455.399 498.536 456.228 499.72 457.269C500.903 458.263 501.802 459.423 502.418 460.748C503.08 462.073 503.506 463.399 503.696 464.724L498.442 466.002C498.205 463.73 497.282 461.955 495.673 460.677C494.111 459.399 492.052 458.76 489.496 458.76C488.502 458.76 487.531 458.878 486.585 459.115C485.685 459.304 484.881 459.612 484.171 460.038C483.461 460.464 482.893 461.008 482.467 461.671C482.041 462.286 481.828 463.02 481.828 463.872Z" fill="#18222D"/>
<path fill-rule="evenodd" clip-rule="evenodd" d="M195.458 194.164H418.54V283.026C418.54 283.798 418.383 284.81 417.987 285.703C417.59 286.599 385.138 359.276 385.138 359.276V246.807L418.542 194.164L455.09 135.828H232.005L195.458 194.164ZM195.458 253.759V195.828L165.729 253.759" fill="#D17019"/>
<path fill-rule="evenodd" clip-rule="evenodd" d="M228.875 120.95L334.195 238.85L300.777 271.386L195.456 153.482L228.873 120.952L228.875 120.95Z" fill="#FBF2EC" stroke="#AF6E24" stroke-width="2"/>
<path d="M240.678 148.574L237.906 151.272L236.899 150.145L239.671 147.447L240.678 148.574ZM242.39 150.491L239.619 153.189L238.612 152.062L241.383 149.364L242.39 150.491ZM236.163 158.789L243.458 151.687L244.892 153.292L241.882 156.223L244.794 159.482L247.804 156.551L249.235 158.153L241.939 165.255L240.508 163.654L243.522 160.72L240.61 157.461L237.597 160.394L236.163 158.789ZM245.306 169.249C244.783 168.663 244.446 168.048 244.297 167.403C244.152 166.759 244.188 166.118 244.405 165.481C244.625 164.842 245.023 164.242 245.6 163.68C246.163 163.132 246.759 162.765 247.387 162.579C248.015 162.392 248.632 162.39 249.239 162.572C249.847 162.756 250.401 163.127 250.9 163.686C251.235 164.061 251.49 164.468 251.663 164.905C251.84 165.342 251.922 165.794 251.908 166.26C251.896 166.729 251.776 167.202 251.549 167.678C251.323 168.151 250.978 168.614 250.512 169.068L250.096 169.473L245.8 164.664L246.74 163.749L249.708 167.071C249.927 166.858 250.076 166.62 250.156 166.357C250.237 166.094 250.246 165.829 250.184 165.561C250.127 165.293 249.996 165.044 249.79 164.814C249.576 164.575 249.333 164.414 249.06 164.333C248.792 164.251 248.523 164.246 248.252 164.315C247.984 164.383 247.74 164.52 247.522 164.728L246.628 165.598C246.357 165.862 246.169 166.142 246.065 166.437C245.963 166.736 245.944 167.033 246.01 167.33C246.075 167.627 246.226 167.907 246.462 168.172C246.619 168.347 246.786 168.485 246.964 168.584C247.142 168.684 247.325 168.74 247.512 168.751C247.7 168.762 247.887 168.728 248.073 168.648L249.286 170.199C248.882 170.453 248.452 170.588 247.995 170.603C247.542 170.619 247.085 170.514 246.622 170.29C246.164 170.065 245.726 169.718 245.306 169.249ZM257.376 167.267L250.08 174.369L248.669 172.789L255.965 165.687L257.376 167.267ZM259.917 170.111L252.621 177.214L251.21 175.634L258.506 168.532L259.917 170.111ZM255.943 181.156C255.428 180.58 255.101 179.968 254.961 179.318C254.825 178.67 254.867 178.026 255.087 177.387C255.309 176.745 255.7 176.152 256.26 175.606C256.826 175.056 257.421 174.689 258.047 174.505C258.675 174.318 259.294 174.32 259.902 174.509C260.515 174.698 261.078 175.08 261.593 175.656C262.107 176.232 262.432 176.844 262.568 177.493C262.708 178.142 262.667 178.787 262.445 179.429C262.226 180.068 261.833 180.662 261.268 181.212C260.708 181.758 260.113 182.124 259.485 182.311C258.859 182.495 258.24 182.492 257.627 182.303C257.019 182.114 256.457 181.732 255.943 181.156ZM257.125 180.019C257.359 180.281 257.626 180.43 257.925 180.467C258.227 180.502 258.542 180.442 258.871 180.288C259.202 180.137 259.526 179.906 259.845 179.597C260.163 179.287 260.406 178.965 260.574 178.631C260.743 178.299 260.822 177.975 260.811 177.658C260.799 177.342 260.676 177.052 260.442 176.79C260.205 176.526 259.934 176.374 259.628 176.335C259.324 176.298 259.007 176.355 258.676 176.506C258.347 176.66 258.023 176.892 257.705 177.201C257.387 177.511 257.143 177.832 256.973 178.164C256.805 178.498 256.729 178.825 256.743 179.144C256.761 179.463 256.889 179.755 257.125 180.019ZM268.453 179.667L263.215 184.495L262.003 183.138L266.979 178.017L268.453 179.667ZM260.329 186.036C260.11 185.792 260.006 185.501 260.015 185.163C260.027 184.824 260.152 184.541 260.389 184.314C260.62 184.085 260.896 183.977 261.219 183.991C261.542 184.005 261.813 184.134 262.032 184.379C262.242 184.613 262.343 184.901 262.336 185.241C262.328 185.58 262.209 185.865 261.979 186.094C261.82 186.244 261.638 186.341 261.432 186.384C261.231 186.427 261.031 186.42 260.834 186.363C260.639 186.303 260.47 186.194 260.329 186.036ZM270.698 182.181L267.927 184.879L266.92 183.752L269.691 181.054L270.698 182.181ZM272.411 184.098L269.639 186.796L268.632 185.669L271.404 182.971L272.411 184.098Z" fill="#AF6E24"/>
<path fill-rule="evenodd" clip-rule="evenodd" d="M161.765 257.896V371.131C161.765 378.207 164.706 382.034 170.46 382.034H368.823C375.011 382.034 379.777 376.763 379.777 374.843V257.896H161.765Z" fill="#D17019"/>
<path d="M196.544 315.207V305.389H199.14V307.121H199.255C199.459 306.546 199.8 306.092 200.277 305.76C200.755 305.427 201.326 305.261 201.99 305.261C202.664 305.261 203.237 305.429 203.71 305.766C204.183 306.098 204.498 306.55 204.656 307.121H204.758C204.958 306.559 205.321 306.109 205.845 305.772C206.373 305.431 206.998 305.261 207.718 305.261C208.634 305.261 209.378 305.553 209.949 306.137C210.524 306.716 210.811 307.539 210.811 308.604V315.207H208.095V309.141C208.095 308.596 207.95 308.186 207.66 307.914C207.37 307.641 207.008 307.505 206.574 307.505C206.079 307.505 205.694 307.662 205.417 307.978C205.14 308.289 205.001 308.7 205.001 309.211V315.207H202.361V309.083C202.361 308.602 202.223 308.218 201.946 307.933C201.673 307.647 201.313 307.505 200.865 307.505C200.563 307.505 200.29 307.581 200.047 307.735C199.809 307.884 199.619 308.095 199.478 308.368C199.338 308.636 199.267 308.951 199.267 309.314V315.207H196.544ZM217.437 315.399C216.427 315.399 215.558 315.194 214.829 314.785C214.104 314.372 213.546 313.788 213.154 313.034C212.762 312.275 212.566 311.378 212.566 310.343C212.566 309.333 212.762 308.446 213.154 307.684C213.546 306.921 214.098 306.326 214.81 305.9C215.526 305.474 216.365 305.261 217.328 305.261C217.976 305.261 218.579 305.365 219.137 305.574C219.7 305.779 220.19 306.088 220.607 306.501C221.029 306.914 221.357 307.434 221.592 308.061C221.826 308.683 221.943 309.412 221.943 310.247V310.995H213.653V309.307H219.38C219.38 308.915 219.295 308.568 219.124 308.265C218.954 307.963 218.717 307.726 218.415 307.556C218.116 307.381 217.769 307.294 217.373 307.294C216.96 307.294 216.593 307.39 216.273 307.581C215.958 307.769 215.711 308.022 215.532 308.342C215.353 308.657 215.261 309.009 215.257 309.397V311.001C215.257 311.487 215.347 311.907 215.526 312.26C215.709 312.614 215.967 312.887 216.299 313.078C216.631 313.27 217.026 313.366 217.482 313.366C217.784 313.366 218.061 313.324 218.313 313.238C218.564 313.153 218.779 313.025 218.958 312.855C219.137 312.684 219.273 312.475 219.367 312.228L221.886 312.395C221.758 313 221.496 313.528 221.099 313.98C220.707 314.427 220.2 314.777 219.578 315.028C218.96 315.275 218.246 315.399 217.437 315.399ZM231.889 308.189L229.396 308.342C229.354 308.129 229.262 307.937 229.121 307.767C228.981 307.592 228.795 307.453 228.565 307.351C228.34 307.245 228.069 307.191 227.754 307.191C227.332 307.191 226.976 307.281 226.686 307.46C226.396 307.635 226.251 307.869 226.251 308.163C226.251 308.397 226.345 308.596 226.533 308.757C226.72 308.919 227.042 309.049 227.498 309.147L229.275 309.505C230.229 309.701 230.941 310.017 231.41 310.451C231.879 310.886 232.113 311.457 232.113 312.164C232.113 312.808 231.923 313.373 231.544 313.858C231.169 314.344 230.653 314.723 229.997 314.996C229.345 315.265 228.593 315.399 227.741 315.399C226.441 315.399 225.406 315.128 224.634 314.587C223.867 314.042 223.418 313.3 223.286 312.363L225.964 312.222C226.045 312.618 226.241 312.921 226.552 313.13C226.863 313.334 227.261 313.436 227.747 313.436C228.224 313.436 228.608 313.345 228.898 313.162C229.192 312.974 229.341 312.733 229.345 312.439C229.341 312.192 229.237 311.99 229.032 311.832C228.827 311.67 228.512 311.547 228.086 311.461L226.386 311.123C225.427 310.931 224.713 310.598 224.244 310.125C223.78 309.652 223.548 309.049 223.548 308.316C223.548 307.686 223.718 307.142 224.059 306.686C224.404 306.23 224.888 305.879 225.51 305.632C226.136 305.385 226.869 305.261 227.709 305.261C228.949 305.261 229.925 305.523 230.636 306.047C231.352 306.571 231.77 307.285 231.889 308.189ZM241.997 308.189L239.504 308.342C239.461 308.129 239.37 307.937 239.229 307.767C239.088 307.592 238.903 307.453 238.673 307.351C238.447 307.245 238.176 307.191 237.861 307.191C237.439 307.191 237.083 307.281 236.794 307.46C236.504 307.635 236.359 307.869 236.359 308.163C236.359 308.397 236.453 308.596 236.64 308.757C236.828 308.919 237.149 309.049 237.605 309.147L239.382 309.505C240.337 309.701 241.048 310.017 241.517 310.451C241.986 310.886 242.22 311.457 242.22 312.164C242.22 312.808 242.031 313.373 241.651 313.858C241.276 314.344 240.761 314.723 240.105 314.996C239.453 315.265 238.7 315.399 237.848 315.399C236.548 315.399 235.513 315.128 234.742 314.587C233.975 314.042 233.525 313.3 233.393 312.363L236.071 312.222C236.152 312.618 236.348 312.921 236.659 313.13C236.97 313.334 237.369 313.436 237.855 313.436C238.332 313.436 238.715 313.345 239.005 313.162C239.299 312.974 239.448 312.733 239.453 312.439C239.448 312.192 239.344 311.99 239.139 311.832C238.935 311.67 238.62 311.547 238.193 311.461L236.493 311.123C235.534 310.931 234.821 310.598 234.352 310.125C233.887 309.652 233.655 309.049 233.655 308.316C233.655 307.686 233.825 307.142 234.166 306.686C234.512 306.23 234.995 305.879 235.617 305.632C236.244 305.385 236.977 305.261 237.816 305.261C239.056 305.261 240.032 305.523 240.744 306.047C241.46 306.571 241.877 307.285 241.997 308.189ZM246.735 315.392C246.108 315.392 245.55 315.284 245.06 315.066C244.57 314.845 244.182 314.519 243.897 314.088C243.615 313.654 243.475 313.113 243.475 312.465C243.475 311.919 243.575 311.461 243.775 311.091C243.976 310.72 244.248 310.422 244.593 310.196C244.939 309.97 245.331 309.799 245.77 309.684C246.213 309.569 246.677 309.488 247.163 309.441C247.734 309.382 248.194 309.326 248.544 309.275C248.893 309.22 249.147 309.139 249.304 309.032C249.462 308.926 249.541 308.768 249.541 308.559V308.521C249.541 308.116 249.413 307.803 249.157 307.581C248.906 307.36 248.548 307.249 248.083 307.249C247.593 307.249 247.204 307.358 246.914 307.575C246.624 307.788 246.432 308.056 246.338 308.38L243.82 308.176C243.948 307.579 244.199 307.064 244.574 306.629C244.949 306.19 245.433 305.853 246.025 305.619C246.622 305.38 247.312 305.261 248.096 305.261C248.642 305.261 249.164 305.325 249.662 305.453C250.165 305.581 250.61 305.779 250.998 306.047C251.39 306.316 251.699 306.661 251.925 307.083C252.151 307.5 252.264 308.001 252.264 308.585V315.207H249.681V313.846H249.605C249.447 314.152 249.236 314.423 248.972 314.657C248.708 314.887 248.39 315.069 248.02 315.201C247.649 315.328 247.221 315.392 246.735 315.392ZM247.515 313.513C247.915 313.513 248.269 313.434 248.576 313.277C248.882 313.115 249.123 312.897 249.298 312.625C249.473 312.352 249.56 312.043 249.56 311.698V310.656C249.475 310.711 249.358 310.762 249.208 310.809C249.064 310.852 248.9 310.892 248.716 310.931C248.533 310.965 248.35 310.997 248.167 311.027C247.983 311.052 247.817 311.076 247.668 311.097C247.348 311.144 247.069 311.218 246.831 311.321C246.592 311.423 246.407 311.561 246.275 311.736C246.142 311.907 246.076 312.12 246.076 312.375C246.076 312.746 246.211 313.029 246.479 313.225C246.752 313.417 247.097 313.513 247.515 313.513ZM258.8 319.093C257.918 319.093 257.161 318.972 256.531 318.729C255.904 318.49 255.406 318.164 255.035 317.751C254.664 317.338 254.423 316.873 254.313 316.358L256.831 316.019C256.908 316.215 257.029 316.398 257.195 316.569C257.362 316.739 257.581 316.875 257.854 316.978C258.131 317.084 258.467 317.137 258.864 317.137C259.456 317.137 259.944 316.993 260.327 316.703C260.715 316.417 260.909 315.938 260.909 315.265V313.468H260.794C260.675 313.741 260.496 313.999 260.257 314.242C260.018 314.485 259.712 314.683 259.337 314.836C258.962 314.99 258.514 315.066 257.994 315.066C257.257 315.066 256.586 314.896 255.981 314.555C255.38 314.21 254.901 313.684 254.543 312.976C254.189 312.265 254.012 311.365 254.012 310.279C254.012 309.167 254.193 308.238 254.555 307.492C254.918 306.746 255.399 306.188 256 305.817C256.605 305.446 257.268 305.261 257.988 305.261C258.538 305.261 258.998 305.355 259.369 305.542C259.739 305.725 260.038 305.956 260.264 306.233C260.494 306.505 260.67 306.774 260.794 307.038H260.896V305.389H263.6V315.303C263.6 316.138 263.396 316.837 262.987 317.4C262.577 317.962 262.011 318.384 261.286 318.665C260.566 318.951 259.737 319.093 258.8 319.093ZM258.857 313.021C259.296 313.021 259.667 312.912 259.969 312.695C260.276 312.473 260.511 312.158 260.673 311.749C260.839 311.336 260.922 310.841 260.922 310.266C260.922 309.691 260.841 309.192 260.679 308.77C260.517 308.344 260.283 308.014 259.976 307.779C259.669 307.545 259.296 307.428 258.857 307.428C258.41 307.428 258.033 307.549 257.726 307.792C257.419 308.031 257.187 308.363 257.029 308.789C256.871 309.216 256.793 309.708 256.793 310.266C256.793 310.833 256.871 311.323 257.029 311.736C257.191 312.145 257.423 312.463 257.726 312.689C258.033 312.91 258.41 313.021 258.857 313.021ZM270.241 315.399C269.232 315.399 268.362 315.194 267.634 314.785C266.909 314.372 266.351 313.788 265.959 313.034C265.567 312.275 265.371 311.378 265.371 310.343C265.371 309.333 265.567 308.446 265.959 307.684C266.351 306.921 266.903 306.326 267.614 305.9C268.33 305.474 269.17 305.261 270.133 305.261C270.781 305.261 271.384 305.365 271.942 305.574C272.504 305.779 272.994 306.088 273.412 306.501C273.834 306.914 274.162 307.434 274.396 308.061C274.631 308.683 274.748 309.412 274.748 310.247V310.995H266.457V309.307H272.185C272.185 308.915 272.099 308.568 271.929 308.265C271.759 307.963 271.522 307.726 271.219 307.556C270.921 307.381 270.574 307.294 270.178 307.294C269.764 307.294 269.398 307.39 269.078 307.581C268.763 307.769 268.516 308.022 268.337 308.342C268.158 308.657 268.066 309.009 268.062 309.397V311.001C268.062 311.487 268.151 311.907 268.33 312.26C268.514 312.614 268.771 312.887 269.104 313.078C269.436 313.27 269.83 313.366 270.286 313.366C270.589 313.366 270.866 313.324 271.117 313.238C271.369 313.153 271.584 313.025 271.763 312.855C271.942 312.684 272.078 312.475 272.172 312.228L274.69 312.395C274.563 313 274.3 313.528 273.904 313.98C273.512 314.427 273.005 314.777 272.383 315.028C271.765 315.275 271.051 315.399 270.241 315.399Z" fill="white"/>
</svg>
